<svg width="322" height="269" viewBox="0 0 322 269" fill="none" xmlns="http://www.w3.org/2000/svg">
<g clip-path="url(#clip0_6_150)" filter="url(#filter0_d_6_150)">
<rect x="61" y="57.5479" width="200" height="146.154" rx="9.2638" fill="#07C5B9"/>
<g clip-path="url(#clip1_6_150)">
<g clip-path="url(#clip2_6_150)">
<g clip-path="url(#clip3_6_150)">
<rect opacity="0.3" x="77.4854" y="142.165" width="167.033" height="5.4945" rx="2.74725" fill="white"/>
<rect x="77.4854" y="142.165" width="109.89" height="5.4945" rx="2.74725" fill="white"/>
</g>
<path opacity="0.7" d="M80.7018 133.283V129.834L77.7448 124.205H78.9769L81.2465 128.796L83.5162 124.205H84.7353L81.7913 129.834V133.283H80.7018ZM87.6558 133.439C87.0419 133.439 86.4972 133.301 86.0217 133.024C85.5461 132.739 85.17 132.345 84.8934 131.844C84.6253 131.342 84.4913 130.75 84.4913 130.067C84.4913 129.393 84.6253 128.805 84.8934 128.303C85.1614 127.793 85.5332 127.4 86.0087 127.123C86.4929 126.838 87.0506 126.695 87.6818 126.695C88.3043 126.695 88.8404 126.838 89.29 127.123C89.7482 127.4 90.0984 127.767 90.3405 128.225C90.5826 128.684 90.7036 129.176 90.7036 129.704C90.7036 129.799 90.6993 129.894 90.6906 129.989C90.6906 130.084 90.6906 130.192 90.6906 130.313H85.5678C85.5937 130.806 85.7061 131.217 85.905 131.546C86.1125 131.865 86.3675 132.108 86.6702 132.272C86.9814 132.436 87.31 132.518 87.6558 132.518C88.1054 132.518 88.4815 132.414 88.7842 132.207C89.0868 131.999 89.3072 131.718 89.4456 131.364H90.522C90.3491 131.961 90.0162 132.458 89.5234 132.855C89.0392 133.244 88.4167 133.439 87.6558 133.439ZM87.6558 127.616C87.137 127.616 86.6745 127.776 86.2681 128.096C85.8704 128.407 85.6413 128.865 85.5807 129.47H89.6272C89.6012 128.891 89.4024 128.437 89.0306 128.109C88.6588 127.78 88.2005 127.616 87.6558 127.616ZM94.6117 133.439C93.8422 133.439 93.2024 133.244 92.6923 132.855C92.1821 132.466 91.8839 131.939 91.7974 131.273H92.9128C92.9819 131.61 93.1592 131.904 93.4445 132.155C93.7385 132.397 94.1319 132.518 94.6247 132.518C95.083 132.518 95.4202 132.423 95.6363 132.233C95.8525 132.034 95.9605 131.801 95.9605 131.533C95.9605 131.143 95.8179 130.884 95.5326 130.754C95.2559 130.625 94.8625 130.508 94.3524 130.404C94.0065 130.335 93.6607 130.236 93.3148 130.106C92.969 129.976 92.6793 129.795 92.4459 129.561C92.2124 129.319 92.0957 129.004 92.0957 128.614C92.0957 128.052 92.3032 127.594 92.7182 127.24C93.1419 126.877 93.7125 126.695 94.4302 126.695C95.1132 126.695 95.6709 126.868 96.1032 127.214C96.5442 127.551 96.7992 128.035 96.8684 128.666H95.7919C95.7487 128.338 95.6061 128.083 95.364 127.901C95.1305 127.711 94.8149 127.616 94.4172 127.616C94.0281 127.616 93.7255 127.698 93.5093 127.862C93.3018 128.027 93.1981 128.243 93.1981 128.511C93.1981 128.77 93.3321 128.973 93.6001 129.12C93.8768 129.267 94.2486 129.393 94.7155 129.496C95.1132 129.583 95.4893 129.691 95.8438 129.821C96.207 129.942 96.5009 130.128 96.7257 130.378C96.9592 130.62 97.0759 130.975 97.0759 131.442C97.0846 132.021 96.8641 132.501 96.4145 132.881C95.9735 133.253 95.3726 133.439 94.6117 133.439Z" fill="white"/>
<path opacity="0.7" d="M221.274 133.439C220.617 133.439 220.063 133.318 219.614 133.076C219.164 132.825 218.801 132.492 218.524 132.077C218.256 131.662 218.057 131.2 217.928 130.69C217.807 130.171 217.746 129.643 217.746 129.107C217.746 128.104 217.884 127.227 218.161 126.475C218.438 125.714 218.835 125.121 219.354 124.698C219.882 124.265 220.517 124.049 221.261 124.049C221.831 124.049 222.32 124.162 222.726 124.386C223.133 124.611 223.453 124.914 223.686 125.294C223.928 125.666 224.079 126.081 224.14 126.539H223.128C223.033 126.047 222.821 125.666 222.493 125.398C222.164 125.13 221.749 124.996 221.248 124.996C220.565 124.996 219.99 125.32 219.523 125.969C219.065 126.609 218.818 127.611 218.784 128.978C218.991 128.571 219.32 128.221 219.769 127.927C220.227 127.624 220.777 127.473 221.416 127.473C221.935 127.473 222.419 127.594 222.869 127.836C223.327 128.078 223.699 128.42 223.984 128.861C224.27 129.293 224.412 129.803 224.412 130.391C224.412 130.901 224.287 131.39 224.036 131.857C223.785 132.324 223.422 132.704 222.947 132.998C222.48 133.292 221.922 133.439 221.274 133.439ZM221.196 132.479C221.602 132.479 221.965 132.393 222.285 132.22C222.605 132.047 222.856 131.809 223.037 131.507C223.219 131.195 223.31 130.841 223.31 130.443C223.31 129.829 223.107 129.341 222.7 128.978C222.303 128.606 221.801 128.42 221.196 128.42C220.789 128.42 220.426 128.515 220.106 128.705C219.787 128.887 219.531 129.133 219.341 129.444C219.16 129.756 219.069 130.093 219.069 130.456C219.069 130.845 219.16 131.195 219.341 131.507C219.531 131.809 219.787 132.047 220.106 132.22C220.426 132.393 220.789 132.479 221.196 132.479ZM229.008 133.439C228.385 133.439 227.845 133.327 227.387 133.102C226.929 132.877 226.561 132.57 226.284 132.181C226.016 131.783 225.852 131.334 225.792 130.832H226.855C226.959 131.334 227.201 131.74 227.581 132.051C227.962 132.354 228.442 132.505 229.021 132.505C229.453 132.505 229.825 132.406 230.136 132.207C230.448 131.999 230.685 131.723 230.85 131.377C231.023 131.031 231.109 130.646 231.109 130.223C231.109 129.548 230.919 129.004 230.538 128.589C230.158 128.173 229.665 127.966 229.06 127.966C228.558 127.966 228.13 128.078 227.776 128.303C227.421 128.528 227.162 128.822 226.998 129.185H225.96L226.738 124.205H231.498V125.152H227.581L227.05 127.914C227.257 127.663 227.542 127.456 227.906 127.292C228.277 127.127 228.701 127.045 229.177 127.045C229.773 127.045 230.292 127.183 230.733 127.46C231.182 127.737 231.533 128.113 231.783 128.589C232.034 129.064 232.159 129.604 232.159 130.21C232.159 130.789 232.034 131.325 231.783 131.818C231.541 132.311 231.182 132.704 230.707 132.998C230.24 133.292 229.674 133.439 229.008 133.439ZM235.497 128.42C235.107 128.42 234.753 128.333 234.433 128.161C234.122 127.979 233.875 127.728 233.694 127.408C233.512 127.08 233.421 126.691 233.421 126.241C233.421 125.791 233.512 125.407 233.694 125.087C233.884 124.758 234.135 124.507 234.446 124.335C234.766 124.153 235.12 124.062 235.51 124.062C235.899 124.062 236.249 124.153 236.56 124.335C236.871 124.507 237.118 124.758 237.299 125.087C237.481 125.407 237.572 125.791 237.572 126.241C237.572 126.691 237.477 127.08 237.286 127.408C237.105 127.728 236.858 127.979 236.547 128.161C236.236 128.333 235.886 128.42 235.497 128.42ZM234.692 133.283L239.971 124.205H241.06L235.782 133.283H234.692ZM235.497 127.577C235.799 127.577 236.063 127.464 236.288 127.24C236.521 127.015 236.638 126.682 236.638 126.241C236.638 125.791 236.525 125.454 236.301 125.229C236.076 124.996 235.812 124.879 235.51 124.879C235.207 124.879 234.935 124.996 234.692 125.229C234.459 125.454 234.342 125.791 234.342 126.241C234.342 126.682 234.459 127.015 234.692 127.24C234.926 127.464 235.194 127.577 235.497 127.577ZM240.347 133.439C239.958 133.439 239.604 133.353 239.284 133.18C238.972 132.998 238.726 132.747 238.544 132.427C238.363 132.099 238.272 131.71 238.272 131.26C238.272 130.811 238.363 130.426 238.544 130.106C238.735 129.777 238.985 129.527 239.297 129.354C239.608 129.172 239.958 129.081 240.347 129.081C240.736 129.081 241.086 129.172 241.398 129.354C241.709 129.527 241.955 129.777 242.137 130.106C242.318 130.426 242.409 130.811 242.409 131.26C242.409 131.71 242.318 132.099 242.137 132.427C241.955 132.747 241.709 132.998 241.398 133.18C241.086 133.353 240.736 133.439 240.347 133.439ZM240.334 132.596C240.645 132.596 240.913 132.484 241.138 132.259C241.372 132.034 241.488 131.701 241.488 131.26C241.488 130.811 241.376 130.473 241.151 130.249C240.926 130.024 240.658 129.911 240.347 129.911C240.044 129.911 239.776 130.024 239.543 130.249C239.31 130.473 239.193 130.811 239.193 131.26C239.193 131.701 239.305 132.034 239.53 132.259C239.763 132.484 240.032 132.596 240.334 132.596Z" fill="white"/>
</g>
<g clip-path="url(#clip4_6_150)">
<g clip-path="url(#clip5_6_150)">
<rect opacity="0.3" x="77.4854" y="181.726" width="167.033" height="5.4945" rx="2.74725" fill="white"/>
<rect x="77.4854" y="181.726" width="64.8352" height="5.4945" rx="2.74725" fill="white"/>
</g>
<path opacity="0.7" d="M78.4452 172.844V163.766H79.5346L84.3722 171.042V163.766H85.4616V172.844H84.3722L79.5346 165.569V172.844H78.4452ZM90.2531 173C89.6479 173 89.1032 172.862 88.619 172.585C88.1348 172.308 87.7501 171.919 87.4647 171.418C87.188 170.908 87.0497 170.311 87.0497 169.628C87.0497 168.945 87.1924 168.353 87.4777 167.851C87.763 167.341 88.1478 166.948 88.632 166.671C89.1248 166.394 89.6738 166.256 90.2791 166.256C90.8843 166.256 91.429 166.394 91.9132 166.671C92.3974 166.948 92.7778 167.341 93.0545 167.851C93.3398 168.353 93.4825 168.945 93.4825 169.628C93.4825 170.311 93.3398 170.908 93.0545 171.418C92.7692 171.919 92.3801 172.308 91.8873 172.585C91.4031 172.862 90.8584 173 90.2531 173ZM90.2531 172.066C90.6249 172.066 90.9708 171.975 91.2907 171.794C91.6106 171.612 91.87 171.34 92.0688 170.977C92.2677 170.614 92.3671 170.164 92.3671 169.628C92.3671 169.092 92.2677 168.642 92.0688 168.279C91.8786 167.916 91.6236 167.644 91.3036 167.462C90.9837 167.281 90.6422 167.19 90.2791 167.19C89.9073 167.19 89.5614 167.281 89.2415 167.462C88.9216 167.644 88.6622 167.916 88.4634 168.279C88.2645 168.642 88.1651 169.092 88.1651 169.628C88.1651 170.164 88.2645 170.614 88.4634 170.977C88.6622 171.34 88.9173 171.612 89.2286 171.794C89.5485 171.975 89.89 172.066 90.2531 172.066Z" fill="white"/>
<path opacity="0.7" d="M222.709 173C222.129 173 221.606 172.896 221.139 172.689C220.672 172.473 220.296 172.153 220.011 171.729C219.734 171.305 219.587 170.778 219.57 170.147H220.672C220.681 170.665 220.863 171.115 221.217 171.496C221.572 171.867 222.069 172.053 222.709 172.053C223.348 172.053 223.828 171.876 224.148 171.521C224.477 171.167 224.641 170.739 224.641 170.238C224.641 169.814 224.537 169.468 224.33 169.2C224.131 168.932 223.859 168.733 223.513 168.603C223.175 168.474 222.804 168.409 222.397 168.409H221.723V167.488H222.397C222.985 167.488 223.443 167.354 223.772 167.086C224.109 166.818 224.278 166.442 224.278 165.958C224.278 165.551 224.144 165.218 223.876 164.959C223.616 164.691 223.227 164.557 222.709 164.557C222.207 164.557 221.805 164.708 221.502 165.011C221.2 165.305 221.031 165.677 220.997 166.126H219.894C219.92 165.633 220.05 165.197 220.283 164.816C220.525 164.436 220.854 164.142 221.269 163.934C221.684 163.718 222.164 163.61 222.709 163.61C223.297 163.61 223.785 163.714 224.174 163.921C224.572 164.129 224.87 164.406 225.069 164.751C225.276 165.097 225.38 165.478 225.38 165.893C225.38 166.351 225.255 166.77 225.004 167.151C224.753 167.523 224.377 167.773 223.876 167.903C224.412 168.015 224.857 168.27 225.212 168.668C225.566 169.066 225.743 169.589 225.743 170.238C225.743 170.739 225.627 171.202 225.393 171.625C225.168 172.04 224.831 172.373 224.382 172.624C223.932 172.875 223.374 173 222.709 173ZM230.592 173C229.97 173 229.43 172.888 228.971 172.663C228.513 172.438 228.146 172.131 227.869 171.742C227.601 171.344 227.437 170.895 227.376 170.393H228.44C228.543 170.895 228.785 171.301 229.166 171.612C229.546 171.915 230.026 172.066 230.605 172.066C231.038 172.066 231.41 171.967 231.721 171.768C232.032 171.56 232.27 171.284 232.434 170.938C232.607 170.592 232.694 170.207 232.694 169.784C232.694 169.109 232.503 168.564 232.123 168.149C231.742 167.734 231.25 167.527 230.644 167.527C230.143 167.527 229.715 167.639 229.36 167.864C229.006 168.089 228.747 168.383 228.582 168.746H227.545L228.323 163.766H233.083V164.713H229.166L228.634 167.475C228.842 167.224 229.127 167.017 229.49 166.853C229.862 166.688 230.286 166.606 230.761 166.606C231.358 166.606 231.876 166.744 232.317 167.021C232.767 167.298 233.117 167.674 233.368 168.149C233.619 168.625 233.744 169.165 233.744 169.771C233.744 170.35 233.619 170.886 233.368 171.379C233.126 171.872 232.767 172.265 232.291 172.559C231.825 172.853 231.258 173 230.592 173ZM237.081 167.981C236.692 167.981 236.338 167.894 236.018 167.721C235.706 167.54 235.46 167.289 235.278 166.969C235.097 166.641 235.006 166.252 235.006 165.802C235.006 165.352 235.097 164.968 235.278 164.648C235.469 164.319 235.719 164.068 236.031 163.896C236.351 163.714 236.705 163.623 237.094 163.623C237.483 163.623 237.833 163.714 238.145 163.896C238.456 164.068 238.702 164.319 238.884 164.648C239.065 164.968 239.156 165.352 239.156 165.802C239.156 166.252 239.061 166.641 238.871 166.969C238.689 167.289 238.443 167.54 238.132 167.721C237.82 167.894 237.47 167.981 237.081 167.981ZM236.277 172.844L241.556 163.766H242.645L237.366 172.844H236.277ZM237.081 167.138C237.384 167.138 237.647 167.025 237.872 166.801C238.106 166.576 238.222 166.243 238.222 165.802C238.222 165.352 238.11 165.015 237.885 164.79C237.66 164.557 237.397 164.44 237.094 164.44C236.791 164.44 236.519 164.557 236.277 164.79C236.044 165.015 235.927 165.352 235.927 165.802C235.927 166.243 236.044 166.576 236.277 166.801C236.51 167.025 236.778 167.138 237.081 167.138ZM241.932 173C241.543 173 241.188 172.914 240.868 172.741C240.557 172.559 240.31 172.308 240.129 171.988C239.947 171.66 239.857 171.271 239.857 170.821C239.857 170.372 239.947 169.987 240.129 169.667C240.319 169.338 240.57 169.088 240.881 168.915C241.192 168.733 241.543 168.642 241.932 168.642C242.321 168.642 242.671 168.733 242.982 168.915C243.293 169.088 243.54 169.338 243.721 169.667C243.903 169.987 243.994 170.372 243.994 170.821C243.994 171.271 243.903 171.66 243.721 171.988C243.54 172.308 243.293 172.559 242.982 172.741C242.671 172.914 242.321 173 241.932 173ZM241.919 172.157C242.23 172.157 242.498 172.045 242.723 171.82C242.956 171.595 243.073 171.262 243.073 170.821C243.073 170.372 242.961 170.034 242.736 169.81C242.511 169.585 242.243 169.472 241.932 169.472C241.629 169.472 241.361 169.585 241.128 169.81C240.894 170.034 240.777 170.372 240.777 170.821C240.777 171.262 240.89 171.595 241.115 171.82C241.348 172.045 241.616 172.157 241.919 172.157Z" fill="white"/>
</g>
<path d="M80.2609 85.0463L77.8097 75.9548H79.2882L81.0909 83.4771L83.166 75.9548H84.6834L86.6937 83.4771L88.4964 75.9548H89.9749L87.4848 85.0334H85.8766L83.8923 77.9132L81.8431 85.0334L80.2609 85.0463ZM91.9625 77.3815C91.7032 77.3815 91.487 77.3037 91.3141 77.148C91.1498 76.9837 91.0677 76.7806 91.0677 76.5385C91.0677 76.2964 91.1498 76.0975 91.3141 75.9419C91.487 75.7776 91.7032 75.6955 91.9625 75.6955C92.2219 75.6955 92.4338 75.7776 92.598 75.9419C92.771 76.0975 92.8574 76.2964 92.8574 76.5385C92.8574 76.7806 92.771 76.9837 92.598 77.148C92.4338 77.3037 92.2219 77.3815 91.9625 77.3815ZM91.2752 85.0334V78.6006H92.6499V85.0334H91.2752ZM94.4647 85.0334V75.6955H95.8395V85.0334H94.4647ZM97.5804 85.0334V75.6955H98.9551V85.0334H97.5804ZM105.248 85.0334L103.354 78.6006H104.729L105.974 83.4511L107.375 78.6006H108.905L110.306 83.4511L111.551 78.6006H112.926L111.032 85.0334H109.618L108.14 79.9753L106.661 85.0334H105.248ZM116.826 85.189C116.195 85.189 115.633 85.0507 115.14 84.774C114.656 84.4887 114.276 84.0953 113.999 83.5938C113.722 83.0923 113.584 82.5087 113.584 81.8429C113.584 81.1685 113.718 80.5762 113.986 80.0661C114.263 79.556 114.643 79.1583 115.127 78.8729C115.62 78.5876 116.191 78.445 116.839 78.445C117.47 78.445 118.019 78.5876 118.486 78.8729C118.953 79.1496 119.316 79.5214 119.576 79.9883C119.835 80.4552 119.965 80.9696 119.965 81.5317C119.965 81.6181 119.961 81.7132 119.952 81.817C119.952 81.9121 119.948 82.0202 119.939 82.1412H114.933C114.976 82.7637 115.179 83.2393 115.542 83.5678C115.914 83.8877 116.342 84.0477 116.826 84.0477C117.215 84.0477 117.54 83.9612 117.799 83.7883C118.067 83.6067 118.266 83.3647 118.396 83.062H119.77C119.597 83.6673 119.252 84.1731 118.733 84.5794C118.223 84.9858 117.587 85.189 116.826 85.189ZM116.826 79.5733C116.368 79.5733 115.962 79.7116 115.607 79.9883C115.253 80.2563 115.036 80.6627 114.959 81.2074H118.59C118.564 80.7059 118.387 80.3082 118.058 80.0142C117.73 79.7203 117.319 79.5733 116.826 79.5733ZM124.659 85.0334V75.6955H126.034V79.6381C126.25 79.2663 126.548 78.9767 126.929 78.7692C127.318 78.553 127.746 78.445 128.213 78.445C128.982 78.445 129.587 78.687 130.028 79.1712C130.469 79.6554 130.69 80.3774 130.69 81.3371V85.0334H129.328V81.4798C129.328 80.2347 128.831 79.6122 127.836 79.6122C127.318 79.6122 126.885 79.7938 126.539 80.1569C126.202 80.52 126.034 81.0388 126.034 81.7132V85.0334H124.659ZM134.488 85.189C133.943 85.189 133.493 85.0982 133.139 84.9166C132.784 84.7351 132.521 84.4973 132.348 84.2033C132.175 83.9007 132.088 83.5722 132.088 83.2177C132.088 82.5951 132.33 82.1023 132.815 81.7392C133.299 81.376 133.99 81.1945 134.89 81.1945H136.576V81.0777C136.576 80.5762 136.437 80.2001 136.161 79.9494C135.893 79.6987 135.542 79.5733 135.11 79.5733C134.73 79.5733 134.397 79.6684 134.112 79.8586C133.835 80.0402 133.666 80.3125 133.606 80.6757H132.231C132.274 80.2088 132.43 79.8111 132.698 79.4825C132.975 79.1453 133.32 78.8902 133.735 78.7173C134.159 78.5357 134.622 78.445 135.123 78.445C136.022 78.445 136.718 78.6827 137.211 79.1583C137.704 79.6252 137.95 80.265 137.95 81.0777V85.0334H136.757L136.641 83.931C136.459 84.2855 136.195 84.5838 135.849 84.8259C135.504 85.068 135.05 85.189 134.488 85.189ZM134.76 84.0736C135.132 84.0736 135.443 83.9872 135.694 83.8143C135.953 83.6327 136.152 83.3949 136.29 83.1009C136.437 82.807 136.528 82.4827 136.563 82.1282H135.032C134.488 82.1282 134.099 82.2234 133.865 82.4136C133.64 82.6038 133.528 82.8416 133.528 83.1269C133.528 83.4209 133.636 83.6543 133.852 83.8272C134.077 83.9915 134.38 84.0736 134.76 84.0736ZM141.141 85.0334L138.729 78.6006H140.168L141.958 83.7235L143.748 78.6006H145.174L142.775 85.0334H141.141ZM148.984 85.189C148.352 85.189 147.79 85.0507 147.298 84.774C146.813 84.4887 146.433 84.0953 146.156 83.5938C145.88 83.0923 145.741 82.5087 145.741 81.8429C145.741 81.1685 145.875 80.5762 146.143 80.0661C146.42 79.556 146.8 79.1583 147.285 78.8729C147.777 78.5876 148.348 78.445 148.997 78.445C149.628 78.445 150.177 78.5876 150.644 78.8729C151.111 79.1496 151.474 79.5214 151.733 79.9883C151.992 80.4552 152.122 80.9696 152.122 81.5317C152.122 81.6181 152.118 81.7132 152.109 81.817C152.109 81.9121 152.105 82.0202 152.096 82.1412H147.09C147.133 82.7637 147.337 83.2393 147.7 83.5678C148.071 83.8877 148.499 84.0477 148.984 84.0477C149.373 84.0477 149.697 83.9612 149.956 83.7883C150.224 83.6067 150.423 83.3647 150.553 83.062H151.928C151.755 83.6673 151.409 84.1731 150.89 84.5794C150.38 84.9858 149.744 85.189 148.984 85.189ZM148.984 79.5733C148.525 79.5733 148.119 79.7116 147.764 79.9883C147.41 80.2563 147.194 80.6627 147.116 81.2074H150.747C150.721 80.7059 150.544 80.3082 150.216 80.0142C149.887 79.7203 149.476 79.5733 148.984 79.5733ZM159.747 85.189C159.125 85.189 158.576 85.042 158.1 84.748C157.625 84.4541 157.253 84.052 156.985 83.5419C156.717 83.0318 156.583 82.4525 156.583 81.804C156.583 81.1555 156.717 80.5806 156.985 80.0791C157.253 79.569 157.625 79.1712 158.1 78.8859C158.584 78.5919 159.138 78.445 159.76 78.445C160.27 78.445 160.716 78.5444 161.096 78.7432C161.485 78.9421 161.788 79.2231 162.004 79.5863V75.6955H163.379V85.0334H162.147L162.004 84.0347C161.796 84.3374 161.511 84.6054 161.148 84.8388C160.785 85.0723 160.318 85.189 159.747 85.189ZM159.994 83.9958C160.582 83.9958 161.062 83.7926 161.433 83.3863C161.814 82.9799 162.004 82.4568 162.004 81.817C162.004 81.1685 161.814 80.6454 161.433 80.2477C161.062 79.8413 160.582 79.6381 159.994 79.6381C159.406 79.6381 158.922 79.8413 158.541 80.2477C158.161 80.6454 157.971 81.1685 157.971 81.817C157.971 82.2406 158.057 82.6168 158.23 82.9453C158.403 83.2739 158.641 83.5333 158.943 83.7235C159.255 83.905 159.605 83.9958 159.994 83.9958ZM167.291 85.189C166.746 85.189 166.297 85.0982 165.942 84.9166C165.588 84.7351 165.324 84.4973 165.151 84.2033C164.978 83.9007 164.892 83.5722 164.892 83.2177C164.892 82.5951 165.134 82.1023 165.618 81.7392C166.102 81.376 166.794 81.1945 167.693 81.1945H169.379V81.0777C169.379 80.5762 169.241 80.2001 168.964 79.9494C168.696 79.6987 168.346 79.5733 167.913 79.5733C167.533 79.5733 167.2 79.6684 166.915 79.8586C166.638 80.0402 166.47 80.3125 166.409 80.6757H165.034C165.077 80.2088 165.233 79.8111 165.501 79.4825C165.778 79.1453 166.124 78.8902 166.539 78.7173C166.962 78.5357 167.425 78.445 167.926 78.445C168.826 78.445 169.522 78.6827 170.014 79.1583C170.507 79.6252 170.754 80.265 170.754 81.0777V85.0334H169.561L169.444 83.931C169.262 84.2855 168.999 84.5838 168.653 84.8259C168.307 85.068 167.853 85.189 167.291 85.189ZM167.563 84.0736C167.935 84.0736 168.246 83.9872 168.497 83.8143C168.756 83.6327 168.955 83.3949 169.094 83.1009C169.241 82.807 169.331 82.4827 169.366 82.1282H167.836C167.291 82.1282 166.902 82.2234 166.668 82.4136C166.444 82.6038 166.331 82.8416 166.331 83.1269C166.331 83.4209 166.439 83.6543 166.655 83.8272C166.88 83.9915 167.183 84.0736 167.563 84.0736ZM173.135 77.3815C172.875 77.3815 172.659 77.3037 172.486 77.148C172.322 76.9837 172.24 76.7806 172.24 76.5385C172.24 76.2964 172.322 76.0975 172.486 75.9419C172.659 75.7776 172.875 75.6955 173.135 75.6955C173.394 75.6955 173.606 75.7776 173.77 75.9419C173.943 76.0975 174.03 76.2964 174.03 76.5385C174.03 76.7806 173.943 76.9837 173.77 77.148C173.606 77.3037 173.394 77.3815 173.135 77.3815ZM172.447 85.0334V78.6006H173.822V85.0334H172.447ZM175.637 85.0334V75.6955H177.012V85.0334H175.637ZM179.505 87.8866L181.048 84.5016H180.672L178.13 78.6006H179.622L181.593 83.3603L183.655 78.6006H185.108L180.957 87.8866H179.505ZM192.553 85.189C191.922 85.189 191.356 85.0463 190.854 84.761C190.362 84.4757 189.972 84.0823 189.687 83.5808C189.41 83.0707 189.272 82.4827 189.272 81.817C189.272 81.1512 189.41 80.5676 189.687 80.0661C189.972 79.556 190.362 79.1583 190.854 78.8729C191.356 78.5876 191.922 78.445 192.553 78.445C193.349 78.445 194.015 78.6525 194.551 79.0675C195.095 79.4825 195.446 80.0445 195.601 80.7535H194.162C194.075 80.399 193.885 80.1223 193.591 79.9235C193.297 79.7246 192.951 79.6252 192.553 79.6252C192.216 79.6252 191.905 79.7116 191.62 79.8845C191.334 80.0488 191.105 80.2952 190.932 80.6238C190.759 80.9437 190.673 81.3414 190.673 81.817C190.673 82.2925 190.759 82.6946 190.932 83.0231C191.105 83.343 191.334 83.5895 191.62 83.7624C191.905 83.9353 192.216 84.0218 192.553 84.0218C192.951 84.0218 193.297 83.9223 193.591 83.7235C193.885 83.5246 194.075 83.2436 194.162 82.8805H195.601C195.454 83.5722 195.108 84.1298 194.564 84.5535C194.019 84.9772 193.349 85.189 192.553 85.189ZM199.271 85.189C198.726 85.189 198.277 85.0982 197.922 84.9166C197.568 84.7351 197.304 84.4973 197.131 84.2033C196.958 83.9007 196.872 83.5722 196.872 83.2177C196.872 82.5951 197.114 82.1023 197.598 81.7392C198.082 81.376 198.774 81.1945 199.673 81.1945H201.359V81.0777C201.359 80.5762 201.221 80.2001 200.944 79.9494C200.676 79.6987 200.326 79.5733 199.893 79.5733C199.513 79.5733 199.18 79.6684 198.895 79.8586C198.618 80.0402 198.45 80.3125 198.389 80.6757H197.014C197.058 80.2088 197.213 79.8111 197.481 79.4825C197.758 79.1453 198.104 78.8902 198.519 78.7173C198.942 78.5357 199.405 78.445 199.906 78.445C200.806 78.445 201.502 78.6827 201.995 79.1583C202.487 79.6252 202.734 80.265 202.734 81.0777V85.0334H201.541L201.424 83.931C201.242 84.2855 200.979 84.5838 200.633 84.8259C200.287 85.068 199.833 85.189 199.271 85.189ZM199.543 84.0736C199.915 84.0736 200.226 83.9872 200.477 83.8143C200.736 83.6327 200.935 83.3949 201.074 83.1009C201.221 82.807 201.311 82.4827 201.346 82.1282H199.816C199.271 82.1282 198.882 82.2234 198.648 82.4136C198.424 82.6038 198.311 82.8416 198.311 83.1269C198.311 83.4209 198.419 83.6543 198.635 83.8272C198.86 83.9915 199.163 84.0736 199.543 84.0736ZM204.337 85.0334V75.6955H205.711V85.0334H204.337ZM207.452 85.0334V75.6955H208.827V85.0334H207.452ZM213.136 85.189C212.323 85.189 211.653 84.9901 211.126 84.5924C210.598 84.1947 210.296 83.6673 210.218 83.0102H211.606C211.675 83.3041 211.839 83.5592 212.098 83.7753C212.358 83.9829 212.699 84.0866 213.123 84.0866C213.538 84.0866 213.841 84.0001 214.031 83.8272C214.221 83.6543 214.316 83.4554 214.316 83.2306C214.316 82.9021 214.182 82.6816 213.914 82.5692C213.655 82.4482 213.292 82.3401 212.825 82.245C212.462 82.1671 212.098 82.0634 211.735 81.9337C211.381 81.804 211.082 81.6224 210.84 81.389C210.607 81.1469 210.49 80.8227 210.49 80.4163C210.49 79.8543 210.706 79.3874 211.139 79.0156C211.571 78.6352 212.176 78.445 212.954 78.445C213.672 78.445 214.251 78.6179 214.692 78.9637C215.142 79.3096 215.406 79.7981 215.483 80.4293H214.161C214.117 80.1526 213.988 79.9364 213.771 79.7808C213.564 79.6252 213.283 79.5473 212.928 79.5473C212.583 79.5473 212.315 79.6208 212.124 79.7678C211.934 79.9062 211.839 80.0877 211.839 80.3125C211.839 80.5373 211.969 80.7146 212.228 80.8443C212.496 80.974 212.846 81.0907 213.279 81.1945C213.711 81.2896 214.109 81.402 214.472 81.5317C214.844 81.6527 215.142 81.8343 215.367 82.0764C215.591 82.3185 215.704 82.673 215.704 83.1398C215.713 83.7278 215.483 84.2163 215.017 84.6054C214.558 84.9945 213.931 85.189 213.136 85.189ZM78.6786 102.033V96.7549H77.7578V95.6006H78.6786V94.6668C78.6786 93.9664 78.8515 93.465 79.1974 93.1624C79.5519 92.8511 80.049 92.6955 80.6889 92.6955H81.3633V93.8627H80.8964C80.5937 93.8627 80.3776 93.9275 80.2479 94.0572C80.1182 94.1783 80.0534 94.3858 80.0534 94.6798V95.6006H81.5319V96.7549H80.0534V102.033H78.6786ZM85.5935 102.189C84.9796 102.189 84.4263 102.051 83.9334 101.774C83.4492 101.489 83.0645 101.095 82.7791 100.594C82.4938 100.084 82.3512 99.4914 82.3512 98.817C82.3512 98.1426 82.4938 97.5546 82.7791 97.0531C83.0731 96.543 83.4665 96.1496 83.9594 95.8729C84.4522 95.5876 85.0012 95.445 85.6065 95.445C86.2203 95.445 86.7694 95.5876 87.2536 95.8729C87.7464 96.1496 88.1355 96.543 88.4208 97.0531C88.7148 97.5546 88.8618 98.1426 88.8618 98.817C88.8618 99.4914 88.7148 100.084 88.4208 100.594C88.1355 101.095 87.7464 101.489 87.2536 101.774C86.7607 102.051 86.2074 102.189 85.5935 102.189ZM85.5935 101.009C85.922 101.009 86.2247 100.927 86.5013 100.762C86.7867 100.598 87.0158 100.356 87.1887 100.036C87.3616 99.7075 87.4481 99.3012 87.4481 98.817C87.4481 98.3328 87.3616 97.9307 87.1887 97.6108C87.0244 97.2823 86.7996 97.0359 86.5143 96.8716C86.2376 96.7073 85.935 96.6252 85.6065 96.6252C85.2779 96.6252 84.971 96.7073 84.6856 96.8716C84.409 97.0359 84.1842 97.2823 84.0112 97.6108C83.8383 97.9307 83.7518 98.3328 83.7518 98.817C83.7518 99.3012 83.8383 99.7075 84.0112 100.036C84.1842 100.356 84.409 100.598 84.6856 100.762C84.9623 100.927 85.2649 101.009 85.5935 101.009ZM90.3485 102.033V95.6006H91.5806L91.6973 96.8197C91.9221 96.396 92.2333 96.0632 92.6311 95.8211C93.0374 95.5703 93.526 95.445 94.0966 95.445V96.8845H93.7205C93.3401 96.8845 92.9985 96.9494 92.6959 97.0791C92.4019 97.2001 92.1642 97.412 91.9826 97.7146C91.8097 98.0086 91.7232 98.4193 91.7232 98.9467V102.033H90.3485ZM101.552 102.189C100.921 102.189 100.359 102.051 99.8658 101.774C99.3816 101.489 99.0012 101.095 98.7245 100.594C98.4478 100.092 98.3095 99.5087 98.3095 98.8429C98.3095 98.1685 98.4435 97.5762 98.7116 97.0661C98.9882 96.556 99.3687 96.1583 99.8529 95.8729C100.346 95.5876 100.916 95.445 101.565 95.445C102.196 95.445 102.745 95.5876 103.212 95.8729C103.679 96.1496 104.042 96.5214 104.301 96.9883C104.561 97.4552 104.69 97.9696 104.69 98.5317C104.69 98.6181 104.686 98.7132 104.677 98.817C104.677 98.9121 104.673 99.0202 104.664 99.1412H99.6583C99.7015 99.7637 99.9047 100.239 100.268 100.568C100.64 100.888 101.068 101.048 101.552 101.048C101.941 101.048 102.265 100.961 102.525 100.788C102.793 100.607 102.991 100.365 103.121 100.062H104.496C104.323 100.667 103.977 101.173 103.458 101.579C102.948 101.986 102.313 102.189 101.552 102.189ZM101.552 96.5733C101.094 96.5733 100.687 96.7116 100.333 96.9883C99.9782 97.2563 99.7621 97.6627 99.6843 98.2074H103.316C103.29 97.7059 103.112 97.3082 102.784 97.0142C102.455 96.7203 102.045 96.5733 101.552 96.5733ZM107.666 102.033L105.254 95.6006H106.694L108.483 100.723L110.273 95.6006H111.7L109.3 102.033H107.666ZM115.509 102.189C114.878 102.189 114.316 102.051 113.823 101.774C113.339 101.489 112.958 101.095 112.682 100.594C112.405 100.092 112.267 99.5087 112.267 98.8429C112.267 98.1685 112.401 97.5762 112.669 97.0661C112.945 96.556 113.326 96.1583 113.81 95.8729C114.303 95.5876 114.874 95.445 115.522 95.445C116.153 95.445 116.702 95.5876 117.169 95.8729C117.636 96.1496 117.999 96.5214 118.259 96.9883C118.518 97.4552 118.648 97.9696 118.648 98.5317C118.648 98.6181 118.643 98.7132 118.635 98.817C118.635 98.9121 118.63 99.0202 118.622 99.1412H113.616C113.659 99.7637 113.862 100.239 114.225 100.568C114.597 100.888 115.025 101.048 115.509 101.048C115.898 101.048 116.222 100.961 116.482 100.788C116.75 100.607 116.949 100.365 117.078 100.062H118.453C118.28 100.667 117.934 101.173 117.416 101.579C116.905 101.986 116.27 102.189 115.509 102.189ZM115.509 96.5733C115.051 96.5733 114.644 96.7116 114.29 96.9883C113.935 97.2563 113.719 97.6627 113.641 98.2074H117.273C117.247 97.7059 117.07 97.3082 116.741 97.0142C116.413 96.7203 116.002 96.5733 115.509 96.5733ZM120.074 102.033V95.6006H121.306L121.423 96.8197C121.648 96.396 121.959 96.0632 122.357 95.8211C122.763 95.5703 123.252 95.445 123.822 95.445V96.8845H123.446C123.066 96.8845 122.724 96.9494 122.422 97.0791C122.128 97.2001 121.89 97.412 121.708 97.7146C121.535 98.0086 121.449 98.4193 121.449 98.9467V102.033H120.074ZM125.753 104.887L127.296 101.502H126.92L124.378 95.6006H125.87L127.841 100.36L129.903 95.6006H131.356L127.206 104.887H125.753ZM135.754 104.887V95.6006H136.986L137.129 96.5992C137.336 96.2966 137.621 96.0286 137.984 95.7951C138.348 95.5617 138.815 95.445 139.385 95.445C140.008 95.445 140.557 95.5919 141.032 95.8859C141.508 96.1799 141.88 96.5819 142.148 97.0921C142.424 97.6022 142.563 98.1815 142.563 98.8299C142.563 99.4784 142.424 100.058 142.148 100.568C141.88 101.069 141.508 101.467 141.032 101.761C140.557 102.046 140.003 102.189 139.372 102.189C138.871 102.189 138.425 102.09 138.036 101.891C137.656 101.692 137.353 101.411 137.129 101.048V104.887H135.754ZM139.139 100.996C139.727 100.996 140.211 100.797 140.591 100.399C140.972 99.9929 141.162 99.4654 141.162 98.817C141.162 98.3933 141.076 98.0172 140.903 97.6886C140.73 97.3601 140.492 97.105 140.189 96.9235C139.887 96.7332 139.536 96.6381 139.139 96.6381C138.551 96.6381 138.067 96.8413 137.686 97.2477C137.314 97.6541 137.129 98.1772 137.129 98.817C137.129 99.4654 137.314 99.9929 137.686 100.399C138.067 100.797 138.551 100.996 139.139 100.996ZM144.05 102.033V95.6006H145.282L145.398 96.8197C145.623 96.396 145.934 96.0632 146.332 95.8211C146.739 95.5703 147.227 95.445 147.798 95.445V96.8845H147.422C147.041 96.8845 146.7 96.9494 146.397 97.0791C146.103 97.2001 145.865 97.412 145.684 97.7146C145.511 98.0086 145.424 98.4193 145.424 98.9467V102.033H144.05ZM151.808 102.189C151.194 102.189 150.641 102.051 150.148 101.774C149.664 101.489 149.279 101.095 148.994 100.594C148.708 100.084 148.566 99.4914 148.566 98.817C148.566 98.1426 148.708 97.5546 148.994 97.0531C149.288 96.543 149.681 96.1496 150.174 95.8729C150.667 95.5876 151.216 95.445 151.821 95.445C152.435 95.445 152.984 95.5876 153.468 95.8729C153.961 96.1496 154.35 96.543 154.635 97.0531C154.929 97.5546 155.076 98.1426 155.076 98.817C155.076 99.4914 154.929 100.084 154.635 100.594C154.35 101.095 153.961 101.489 153.468 101.774C152.975 102.051 152.422 102.189 151.808 102.189ZM151.808 101.009C152.137 101.009 152.439 100.927 152.716 100.762C153.001 100.598 153.23 100.356 153.403 100.036C153.576 99.7075 153.663 99.3012 153.663 98.817C153.663 98.3328 153.576 97.9307 153.403 97.6108C153.239 97.2823 153.014 97.0359 152.729 96.8716C152.452 96.7073 152.15 96.6252 151.821 96.6252C151.492 96.6252 151.185 96.7073 150.9 96.8716C150.623 97.0359 150.399 97.2823 150.226 97.6108C150.053 97.9307 149.966 98.3328 149.966 98.817C149.966 99.3012 150.053 99.7075 150.226 100.036C150.399 100.356 150.623 100.598 150.9 100.762C151.177 100.927 151.479 101.009 151.808 101.009ZM157.38 94.3815C157.121 94.3815 156.904 94.3037 156.732 94.148C156.567 93.9837 156.485 93.7806 156.485 93.5385C156.485 93.2964 156.567 93.0975 156.732 92.9419C156.904 92.7776 157.121 92.6955 157.38 92.6955C157.639 92.6955 157.851 92.7776 158.016 92.9419C158.188 93.0975 158.275 93.2964 158.275 93.5385C158.275 93.7806 158.188 93.9837 158.016 94.148C157.851 94.3037 157.639 94.3815 157.38 94.3815ZM155.331 104.887V103.719H155.837C156.139 103.719 156.355 103.655 156.485 103.525C156.615 103.404 156.68 103.196 156.68 102.902V95.6006H158.054V102.915C158.054 103.616 157.877 104.117 157.523 104.42C157.168 104.731 156.675 104.887 156.044 104.887H155.331ZM162.877 102.189C162.246 102.189 161.684 102.051 161.191 101.774C160.707 101.489 160.327 101.095 160.05 100.594C159.774 100.092 159.635 99.5087 159.635 98.8429C159.635 98.1685 159.769 97.5762 160.037 97.0661C160.314 96.556 160.694 96.1583 161.179 95.8729C161.671 95.5876 162.242 95.445 162.89 95.445C163.522 95.445 164.071 95.5876 164.538 95.8729C165.004 96.1496 165.368 96.5214 165.627 96.9883C165.886 97.4552 166.016 97.9696 166.016 98.5317C166.016 98.6181 166.012 98.7132 166.003 98.817C166.003 98.9121 165.999 99.0202 165.99 99.1412H160.984C161.027 99.7637 161.23 100.239 161.594 100.568C161.965 100.888 162.393 101.048 162.877 101.048C163.267 101.048 163.591 100.961 163.85 100.788C164.118 100.607 164.317 100.365 164.447 100.062H165.822C165.649 100.667 165.303 101.173 164.784 101.579C164.274 101.986 163.638 102.189 162.877 102.189ZM162.877 96.5733C162.419 96.5733 162.013 96.7116 161.658 96.9883C161.304 97.2563 161.088 97.6627 161.01 98.2074H164.641C164.615 97.7059 164.438 97.3082 164.11 97.0142C163.781 96.7203 163.37 96.5733 162.877 96.5733ZM170.49 102.189C169.859 102.189 169.293 102.046 168.791 101.761C168.298 101.476 167.909 101.082 167.624 100.581C167.347 100.071 167.209 99.4827 167.209 98.817C167.209 98.1512 167.347 97.5676 167.624 97.0661C167.909 96.556 168.298 96.1583 168.791 95.8729C169.293 95.5876 169.859 95.445 170.49 95.445C171.286 95.445 171.951 95.6525 172.488 96.0675C173.032 96.4825 173.382 97.0445 173.538 97.7535H172.098C172.012 97.399 171.822 97.1223 171.528 96.9235C171.234 96.7246 170.888 96.6252 170.49 96.6252C170.153 96.6252 169.842 96.7116 169.556 96.8845C169.271 97.0488 169.042 97.2952 168.869 97.6238C168.696 97.9437 168.61 98.3414 168.61 98.817C168.61 99.2925 168.696 99.6946 168.869 100.023C169.042 100.343 169.271 100.589 169.556 100.762C169.842 100.935 170.153 101.022 170.49 101.022C170.888 101.022 171.234 100.922 171.528 100.723C171.822 100.525 172.012 100.244 172.098 99.8805H173.538C173.391 100.572 173.045 101.13 172.501 101.554C171.956 101.977 171.286 102.189 170.49 102.189ZM177.6 102.033C176.969 102.033 176.467 101.882 176.096 101.579C175.724 101.268 175.538 100.719 175.538 99.9323V96.7549H174.436V95.6006H175.538L175.706 93.9664H176.913V95.6006H178.728V96.7549H176.913V99.9323C176.913 100.287 176.986 100.533 177.133 100.672C177.289 100.801 177.552 100.866 177.924 100.866H178.664V102.033H177.6ZM182.714 102.189C181.901 102.189 181.231 101.99 180.704 101.592C180.176 101.195 179.873 100.667 179.796 100.01H181.183C181.253 100.304 181.417 100.559 181.676 100.775C181.936 100.983 182.277 101.087 182.701 101.087C183.116 101.087 183.418 101 183.609 100.827C183.799 100.654 183.894 100.455 183.894 100.231C183.894 99.9021 183.76 99.6816 183.492 99.5692C183.233 99.4482 182.869 99.3401 182.403 99.245C182.039 99.1671 181.676 99.0634 181.313 98.9337C180.959 98.804 180.66 98.6224 180.418 98.389C180.185 98.1469 180.068 97.8227 180.068 97.4163C180.068 96.8543 180.284 96.3874 180.717 96.0156C181.149 95.6352 181.754 95.445 182.532 95.445C183.25 95.445 183.829 95.6179 184.27 95.9637C184.72 96.3096 184.983 96.7981 185.061 97.4293H183.738C183.695 97.1526 183.565 96.9364 183.349 96.7808C183.142 96.6252 182.861 96.5473 182.506 96.5473C182.16 96.5473 181.892 96.6208 181.702 96.7678C181.512 96.9062 181.417 97.0877 181.417 97.3125C181.417 97.5373 181.547 97.7146 181.806 97.8443C182.074 97.974 182.424 98.0907 182.856 98.1945C183.289 98.2896 183.686 98.402 184.05 98.5317C184.421 98.6527 184.72 98.8343 184.945 99.0764C185.169 99.3185 185.282 99.673 185.282 100.14C185.29 100.728 185.061 101.216 184.594 101.605C184.136 101.994 183.509 102.189 182.714 102.189Z" fill="white"/>
</g>
</g>
<defs>
<filter id="filter0_d_6_150" x="0.0520363" y="0.663177" width="321.896" height="268.05" filterUnits="userSpaceOnUse" color-interpolation-filters="sRGB">
<feFlood flood-opacity="0" result="BackgroundImageFix"/>
<feColorMatrix in="SourceAlpha" type="matrix" values="0 0 0 0 0 0 0 0 0 0 0 0 0 0 0 0 0 0 127 0" result="hardAlpha"/>
<feOffset dy="4.0632"/>
<feGaussianBlur stdDeviation="30.474"/>
<feColorMatrix type="matrix" values="0 0 0 0 0 0 0 0 0 0 0 0 0 0 0 0 0 0 0.08 0"/>
<feBlend mode="normal" in2="BackgroundImageFix" result="effect1_dropShadow_6_150"/>
<feBlend mode="normal" in="SourceGraphic" in2="effect1_dropShadow_6_150" result="shape"/>
</filter>
<clipPath id="clip0_6_150">
<rect width="200" height="146.154" fill="white" transform="translate(61 57.5479)"/>
</clipPath>
<clipPath id="clip1_6_150">
<rect width="167.033" height="113.187" fill="white" transform="translate(77.4854 74.0334)"/>
</clipPath>
<clipPath id="clip2_6_150">
<rect width="167.033" height="26.3761" fill="white" transform="translate(77.4854 121.283)"/>
</clipPath>
<clipPath id="clip3_6_150">
<rect width="167.033" height="5.4945" fill="white" transform="translate(77.4854 142.165)"/>
</clipPath>
<clipPath id="clip4_6_150">
<rect width="167.033" height="26.3761" fill="white" transform="translate(77.4854 160.844)"/>
</clipPath>
<clipPath id="clip5_6_150">
<rect width="167.033" height="5.4945" fill="white" transform="translate(77.4854 181.726)"/>
</clipPath>
</defs>
</svg>
