<svg width="54" height="53" viewBox="0 0 54 53" fill="none" xmlns="http://www.w3.org/2000/svg">
<g clip-path="url(#clip0_2_1161)">
<rect x="0.679688" width="52.7546" height="52.7546" rx="17.5849" fill="#FF5555"/>
<mask id="mask0_2_1161" style="mask-type:luminance" maskUnits="userSpaceOnUse" x="13" y="13" width="28" height="27">
<rect x="13.8672" y="13.1885" width="26.3773" height="26.3773" fill="white"/>
</mask>
<g mask="url(#mask0_2_1161)">
<path d="M21.0231 28.4545C21.5507 28.0368 21.8584 27.3994 21.8584 26.7289V23.8714C25.1775 22.7943 28.7715 22.7833 32.1016 23.8714V26.7399C32.1016 27.4103 32.4093 28.0478 32.9369 28.4654L35.124 30.2019C36.0032 30.8944 37.2562 30.8284 38.0475 30.0371L39.3883 28.6962C40.2676 27.817 40.2676 26.3553 39.3334 25.531C32.2884 19.3103 21.6716 19.3103 14.6266 25.531C13.6924 26.3553 13.6924 27.817 14.5717 28.6962L15.9125 30.0371C16.6928 30.8284 17.9458 30.8944 18.825 30.2019L21.0231 28.4545Z" fill="white"/>
</g>
</g>
<defs>
<clipPath id="clip0_2_1161">
<rect width="52.7546" height="52.7546" fill="white" transform="translate(0.679688)"/>
</clipPath>
</defs>
</svg>
