<svg width="36" height="36" viewBox="0 0 36 36" fill="none" xmlns="http://www.w3.org/2000/svg">
<mask id="mask0_2_1131" style="mask-type:luminance" maskUnits="userSpaceOnUse" x="0" y="0" width="36" height="36">
<rect y="0.791992" width="35.1697" height="35.1697" fill="white"/>
</mask>
<g mask="url(#mask0_2_1131)">
<path d="M17.5857 22.7731C20.0182 22.7731 21.9819 20.8095 21.9819 18.3769C21.9819 15.9444 20.0182 13.9807 17.5857 13.9807C15.1531 13.9807 13.1895 15.9444 13.1895 18.3769C13.1895 20.8095 15.1531 22.7731 17.5857 22.7731Z" fill="#FAFAFA"/>
<path d="M10.2577 12.5153H7.45877C9.48103 9.01302 13.2618 6.65371 17.5847 6.65371C22.699 6.65371 27.0366 9.93622 28.6339 14.5083C28.839 15.0798 29.4106 15.4461 30.0114 15.4461C31.0078 15.4461 31.7405 14.4643 31.4182 13.5265C29.4106 7.81138 23.9739 3.7229 17.5847 3.7229C12.7928 3.7229 8.52852 6.03824 5.86148 9.59918V8.11912C5.86148 7.31315 5.20204 6.65371 4.39607 6.65371C3.5901 6.65371 2.93066 7.31315 2.93066 8.11912V13.9807C2.93066 14.7867 3.5901 15.4461 4.39607 15.4461H10.2577C11.0637 15.4461 11.7231 14.7867 11.7231 13.9807C11.7231 13.1748 11.0637 12.5153 10.2577 12.5153Z" fill="#FAFAFA"/>
<path d="M24.9113 24.2387H27.7102C25.6879 27.741 21.9072 30.1003 17.5842 30.1003C12.47 30.1003 8.13237 26.8178 6.53508 22.2457C6.32992 21.6742 5.75841 21.3079 5.1576 21.3079C4.16112 21.3079 3.42842 22.2897 3.75081 23.2275C5.75841 28.9426 11.1951 33.0311 17.5842 33.0311C22.3761 33.0311 26.6404 30.7158 29.3075 27.1548V28.6349C29.3075 29.4409 29.9669 30.1003 30.7729 30.1003C31.5789 30.1003 32.2383 29.4409 32.2383 28.6349V22.7733C32.2383 21.9673 31.5789 21.3079 30.7729 21.3079H24.9113C24.1053 21.3079 23.4459 21.9673 23.4459 22.7733C23.4459 23.5792 24.1053 24.2387 24.9113 24.2387Z" fill="#FAFAFA"/>
</g>
</svg>
