<svg width="36" height="40" viewBox="0 0 36 40" fill="none" xmlns="http://www.w3.org/2000/svg">
<mask id="mask0_2_1146" style="mask-type:luminance" maskUnits="userSpaceOnUse" x="0" y="0" width="36" height="40">
<rect width="35.1697" height="39.9915" fill="white"/>
</mask>
<g mask="url(#mask0_2_1146)">
<path fill-rule="evenodd" clip-rule="evenodd" d="M21.9805 18.3294V8.33157C21.9805 5.5655 20.0169 3.33264 17.5843 3.33264C15.1517 3.33264 13.1881 5.5655 13.1881 8.33157V18.3294C13.1881 21.0955 15.1517 23.3284 17.5843 23.3284C20.0169 23.3284 21.9805 21.0955 21.9805 18.3294ZM24.8087 19.7458C24.2079 23.6616 21.2038 26.661 17.5843 26.661C13.9647 26.661 10.9607 23.6616 10.3598 19.7458C10.2426 18.9293 9.64179 18.3294 8.92374 18.3294C8.02984 18.3294 7.32645 19.2292 7.45833 20.229C8.17638 25.228 11.6934 29.1438 16.1189 29.8603V33.3262C16.1189 34.2427 16.7783 34.9925 17.5843 34.9925C18.3903 34.9925 19.0497 34.2427 19.0497 33.3262V29.8603C23.4752 29.1438 26.9922 25.228 27.7102 20.229C27.8568 19.2292 27.1387 18.3294 26.2448 18.3294C25.5268 18.3294 24.926 18.9293 24.8087 19.7458Z" fill="#FAFAFA"/>
</g>
</svg>
