<svg width="37" height="36" viewBox="0 0 37 36" fill="none" xmlns="http://www.w3.org/2000/svg">
<mask id="mask0_2_1152" style="mask-type:luminance" maskUnits="userSpaceOnUse" x="0" y="0" width="37" height="36">
<rect x="0.943359" y="0.791992" width="35.1697" height="35.1697" fill="white"/>
</mask>
<g mask="url(#mask0_2_1152)">
<path fill-rule="evenodd" clip-rule="evenodd" d="M9.47202 8.119L10.4392 3.45901C10.5564 2.91681 10.3806 2.35996 9.99957 1.9643C9.35479 1.31952 8.31435 1.31952 7.68423 1.9643L1.8226 7.82592C1.25109 8.36812 0.943359 9.11548 0.943359 9.89214V18.3768C0.943359 19.9888 2.26222 21.3077 3.87417 21.3077H12.5494C13.7217 21.3077 14.7768 20.6043 15.2457 19.5345L18.3817 12.2075C19.2023 10.2732 17.7809 8.119 15.6853 8.119H9.47202ZM24.5071 15.446C23.3348 15.446 22.2797 16.1494 21.8107 17.2192L18.6748 24.5462C17.8541 26.4805 19.2609 28.6347 21.3711 28.6347H27.5844L26.6173 33.2947C26.5 33.8369 26.6759 34.3937 27.0569 34.7894C27.7017 35.4342 28.7421 35.4342 29.3722 34.7894L35.2339 28.9278C35.7907 28.3709 36.0984 27.6382 36.0984 26.8615V18.3768C36.1131 16.7649 34.7942 15.446 33.1823 15.446H24.5071Z" fill="#FAFAFA"/>
</g>
</svg>
